<svg xmlns="http://www.w3.org/2000/svg" width="120" height="32" viewBox="0 0 120 32"><g fill="none"><path fill="#2F8DEB" d="M22.26199 5.314881H6.346705c-.304378 0-.551408.245333-.551408.547619v6.962976h8.904134c.304377 0 .551408.245334.551408.54762v8.842952h7.011151c.304377 0 .551408-.245334.551408-.54762V5.8625c0-.302286-.24648-.547619-.551408-.547619z"/><path fill="#A0D6FA" d="M15.250839 13.373643c0-.302286-.24703-.54762-.551408-.54762H.989777c-.304377 0-.551408.245334-.551408.54762v13.615452c0 .302286.247031.54762.551408.54762h13.709654c.304377 0 .551408-.245334.551408-.54762v-4.7725l-.563539.000548c-.001654 0-.003308-.000548-.004963-.000548-4.90367-.01369-8.87491-3.958738-8.885937-8.82981l-.001103-.560761h8.904134c.304377 0 .551408.244786.551408.547619z"/><path fill="#FFF" d="M14.682 22.216l.005.001.564-.001z"/><path fill="#FFF" d="M14.699431 12.826024H5.795297l.001103.560762c.011028 4.870523 3.982267 8.815571 8.885937 8.82981h.568502v-8.842953c0-.302833-.24703-.54762-.551408-.54762z"/><path d="M38.679409 12.268286v1.896404s-.318162-.105142-.636325-.105142c-1.2732 0-2.333558 1.053619-2.333558 2.317523v5.373239h-1.909525v-9.481477h1.37907l.424034.947929s.848616-1.05362 2.43998-1.05362c.424583-.000547.636324.105144.636324.105144zm9.7196 6.742285c-.636876 1.579881-1.909525 2.844334-4.137213 2.844334-2.54585 0-4.561798-2.001548-4.561798-4.845881 0-2.844334 2.015396-4.846429 4.455376-4.846429 2.439429 0 4.455376 2.001548 4.455376 4.846429 0 .421666-.10587.842786-.10587.842786h-6.788934c.10587 1.158761 1.166779 2.21238 2.54585 2.21238 1.166779 0 1.803104-.631952 2.121817-1.053619h2.015396zm-6.683063-2.73919h5.0917c-.212292-1.369595-1.16678-2.317524-2.65172-2.317524-1.273201 0-2.22824.947929-2.43998 2.317524zm10.193577 2.423214c.10587.842786.636876 1.369596 1.697234 1.369596 1.166779 0 1.697233-.52681 1.697233-1.158762 0-1.685572-5.0917-.52681-5.0917-3.897953 0-1.580428 1.2732-2.84488 3.288596-2.84488 2.227688 0 3.394467 1.158761 3.500889 2.950023h-1.909526c-.10587-.631952-.636324-1.158762-1.591363-1.158762-.954487 0-1.484941.52681-1.484941 1.05362 0 1.68557 5.0917.526809 5.0917 3.897952 0 1.685571-1.27265 2.950023-3.500888 2.950023-2.333558 0-3.500889-1.158762-3.60676-3.16031h1.909526v-.000547zM58.9 17.74612v-5.47838h1.909526v5.47838c0 1.264452 1.060908 2.317524 2.227687 2.317524 1.273201 0 2.333559-1.05362 2.333559-2.317524v-5.47838h1.909525v9.481475h-1.379071l-.424584-.947928s-.848617 1.053619-2.758142 1.053619c-2.121266 0-3.8185-1.685572-3.8185-4.108786zm23.842096-1.685571v5.689214h-1.909526v-5.689214c0-1.263905-.848616-2.10669-1.803103-2.10669-.955039 0-1.803655.842785-1.803655 2.10669v5.689214h-1.909526v-5.689214c0-1.263905-.848617-2.10669-1.803104-2.10669-.954487 0-1.803655.842785-1.803655 2.10669v5.689214h-1.909525v-9.481476h1.37907l.424034.947928s.848616-1.053619 2.334109-1.053619c1.803104 0 2.652272 1.475286 2.652272 1.475286 0 .02081.954487-1.475286 2.864012-1.475286 1.803656 0 3.288597 1.474738 3.288597 3.897953zm10.656918 2.950023c-.636325 1.579881-1.909526 2.844334-4.137213 2.844334-2.54585 0-4.561798-2.001548-4.561798-4.845881 0-2.844334 2.015396-4.846429 4.455376-4.846429 2.43998 0 4.455375 2.001548 4.455375 4.846429 0 .421666-.10587.842786-.10587.842786H86.71595c.10587 1.158761 1.16678 2.21238 2.54585 2.21238 1.16678 0 1.803104-.631952 2.121818-1.053619h2.015396zm-6.682512-2.73919h5.0917c-.212292-1.369595-1.166779-2.317524-2.652272-2.317524-1.27265 0-2.227688.947929-2.439428 2.317524zm8.950276 5.708928c-.636325 0-1.16678-.52681-1.16678-1.158762 0-.6325.530455-1.158762 1.16678-1.158762.636876 0 1.166779.52681 1.166779 1.158762.000551.631952-.529903 1.158762-1.16678 1.158762zM98.8 9.634239c0-.631953.530454-1.158763 1.166779-1.158763s1.166779.52681 1.166779 1.158762c0 .6325-.530454 1.158762-1.16678 1.158762-.636324 0-1.166778-.52681-1.166778-1.158762zm2.121817 12.115523h-1.909525v-9.481476h1.909525v9.481476zm6.539979.105143c-2.54585 0-4.561798-2.001548-4.561798-4.845881 0-2.844334 2.015396-4.846429 4.561798-4.846429 2.546401 0 4.561245 2.001548 4.561245 4.846429 0 2.84488-2.015395 4.84588-4.561245 4.84588zm0-7.901048c-1.379071 0-2.652272 1.263905-2.652272 3.055167 0 1.790714 1.2732 3.055167 2.652272 3.055167 1.37907 0 2.652271-1.264453 2.652271-3.055167-.000551-1.791262-1.2732-3.055167-2.652271-3.055167z" fill="#262B33"/></g></svg>